<svg width="18" height="20" viewBox="0 0 18 20" fill="none" xmlns="http://www.w3.org/2000/svg">
<path d="M0 18.125C0 19.1797 0.84375 20 1.92857 20H16.0714C17.1161 20 18 19.1797 18 18.125V7.5H0V18.125ZM12.8571 10.4688C12.8571 10.2344 13.058 10 13.3393 10H14.9464C15.1875 10 15.4286 10.2344 15.4286 10.4688V12.0312C15.4286 12.3047 15.1875 12.5 14.9464 12.5H13.3393C13.058 12.5 12.8571 12.3047 12.8571 12.0312V10.4688ZM12.8571 15.4688C12.8571 15.2344 13.058 15 13.3393 15H14.9464C15.1875 15 15.4286 15.2344 15.4286 15.4688V17.0312C15.4286 17.3047 15.1875 17.5 14.9464 17.5H13.3393C13.058 17.5 12.8571 17.3047 12.8571 17.0312V15.4688ZM7.71429 10.4688C7.71429 10.2344 7.91518 10 8.19643 10H9.80357C10.0446 10 10.2857 10.2344 10.2857 10.4688V12.0312C10.2857 12.3047 10.0446 12.5 9.80357 12.5H8.19643C7.91518 12.5 7.71429 12.3047 7.71429 12.0312V10.4688ZM7.71429 15.4688C7.71429 15.2344 7.91518 15 8.19643 15H9.80357C10.0446 15 10.2857 15.2344 10.2857 15.4688V17.0312C10.2857 17.3047 10.0446 17.5 9.80357 17.5H8.19643C7.91518 17.5 7.71429 17.3047 7.71429 17.0312V15.4688ZM2.57143 10.4688C2.57143 10.2344 2.77232 10 3.05357 10H4.66071C4.90179 10 5.14286 10.2344 5.14286 10.4688V12.0312C5.14286 12.3047 4.90179 12.5 4.66071 12.5H3.05357C2.77232 12.5 2.57143 12.3047 2.57143 12.0312V10.4688ZM2.57143 15.4688C2.57143 15.2344 2.77232 15 3.05357 15H4.66071C4.90179 15 5.14286 15.2344 5.14286 15.4688V17.0312C5.14286 17.3047 4.90179 17.5 4.66071 17.5H3.05357C2.77232 17.5 2.57143 17.3047 2.57143 17.0312V15.4688ZM16.0714 2.5H14.1429V0.625C14.1429 0.3125 13.8214 0 13.5 0H12.2143C11.8527 0 11.5714 0.3125 11.5714 0.625V2.5H6.42857V0.625C6.42857 0.3125 6.10714 0 5.78571 0H4.5C4.13839 0 3.85714 0.3125 3.85714 0.625V2.5H1.92857C0.84375 2.5 0 3.35938 0 4.375V6.25H18V4.375C18 3.35938 17.1161 2.5 16.0714 2.5Z" fill="#00888A"/>
</svg>
