<svg width="20" height="20" viewBox="0 0 20 20" fill="none" xmlns="http://www.w3.org/2000/svg">
<path d="M10.0007 10C10.7075 10.0013 11.3921 9.75248 11.933 9.2975C12.474 8.84252 12.8365 8.21078 12.9562 7.51418C13.076 6.81757 12.9454 6.10105 12.5875 5.49153C12.2296 4.88201 11.6675 4.41882 11.0007 4.184V1C11.0007 0.734783 10.8954 0.48043 10.7078 0.292893C10.5203 0.105357 10.2659 0 10.0007 0C9.73543 0 9.48106 0.105357 9.29351 0.292893C9.10596 0.48043 9.0006 0.734783 9.0006 1V4.184C8.33387 4.41882 7.77177 4.88201 7.41386 5.49153C7.05594 6.10105 6.9253 6.81757 7.04508 7.51418C7.16486 8.21078 7.52734 8.84252 8.0683 9.2975C8.60925 9.75248 9.29379 10.0013 10.0007 10ZM2.00014 8.184V1C2.00014 0.734783 2.1055 0.48043 2.29305 0.292893C2.4806 0.105357 2.73497 0 3.0002 0C3.26544 0 3.51981 0.105357 3.70736 0.292893C3.89491 0.48043 4.00027 0.734783 4.00027 1V8.184C4.66753 8.4199 5.2299 8.88407 5.58801 9.49448C5.94611 10.1049 6.07687 10.8222 5.95719 11.5197C5.83751 12.2172 5.4751 12.85 4.93399 13.3061C4.39289 13.7622 3.70794 14.0124 3.0002 14.0124C2.29247 14.0124 1.60752 13.7622 1.06642 13.3061C0.525311 12.85 0.162893 12.2172 0.0432129 11.5197C-0.0764656 10.8222 0.0543003 10.1049 0.412401 9.49448C0.770502 8.88407 1.33288 8.4199 2.00014 8.184ZM17.0011 12C16.2943 12.0013 15.6097 11.7525 15.0688 11.2975C14.5278 10.8425 14.1653 10.2108 14.0455 9.51418C13.9258 8.81757 14.0564 8.10106 14.4143 7.49153C14.7722 6.88201 15.3343 6.41882 16.0011 6.184V1C16.0011 0.734783 16.1064 0.48043 16.294 0.292893C16.4815 0.105357 16.7359 0 17.0011 0C17.2664 0 17.5207 0.105357 17.7083 0.292893C17.8958 0.48043 18.0012 0.734783 18.0012 1V6.184C18.6679 6.41882 19.23 6.88201 19.5879 7.49153C19.9459 8.10106 20.0765 8.81757 19.9567 9.51418C19.8369 10.2108 19.4745 10.8425 18.9335 11.2975C18.3925 11.7525 17.708 12.0013 17.0011 12ZM2.00014 19V17C2.00014 16.7348 2.1055 16.4804 2.29305 16.2929C2.4806 16.1054 2.73497 16 3.0002 16C3.26544 16 3.51981 16.1054 3.70736 16.2929C3.89491 16.4804 4.00027 16.7348 4.00027 17V19C4.00027 19.2652 3.89491 19.5196 3.70736 19.7071C3.51981 19.8946 3.26544 20 3.0002 20C2.73497 20 2.4806 19.8946 2.29305 19.7071C2.1055 19.5196 2.00014 19.2652 2.00014 19ZM11.0007 13V19C11.0007 19.2652 10.8954 19.5196 10.7078 19.7071C10.5203 19.8946 10.2659 20 10.0007 20C9.73543 20 9.48106 19.8946 9.29351 19.7071C9.10596 19.5196 9.0006 19.2652 9.0006 19V13C9.0006 12.7348 9.10596 12.4804 9.29351 12.2929C9.48106 12.1054 9.73543 12 10.0007 12C10.2659 12 10.5203 12.1054 10.7078 12.2929C10.8954 12.4804 11.0007 12.7348 11.0007 13ZM18.0012 15V19C18.0012 19.2652 17.8958 19.5196 17.7083 19.7071C17.5207 19.8946 17.2664 20 17.0011 20C16.7359 20 16.4815 19.8946 16.294 19.7071C16.1064 19.5196 16.0011 19.2652 16.0011 19V15C16.0011 14.7348 16.1064 14.4804 16.294 14.2929C16.4815 14.1054 16.7359 14 17.0011 14C17.2664 14 17.5207 14.1054 17.7083 14.2929C17.8958 14.4804 18.0012 14.7348 18.0012 15Z" fill="white"/>
</svg>
